<svg version="1.2" xmlns="http://www.w3.org/2000/svg" viewBox="0 0 300 300" width="300" height="300">
	<title>Exponential_function-svg</title>
	<style>
		.s0 { fill: none;stroke: #0000c8;stroke-width: 2 } 
	</style>
	<path id="path5900" fill-rule="evenodd" class="s0" d="m29.1 199l1.5-0.2 1.5-0.2 1.4-0.2 1.5-0.2 1.4-0.2 1.5-0.3 1.4-0.2 1.5-0.2 1.5-0.3 1.4-0.2 1.5-0.2 1.4-0.3 1.5-0.2 1.4-0.3 1.5-0.3 1.4-0.2 1.5-0.3 1.5-0.3 1.4-0.3 1.5-0.3 1.4-0.3 1.5-0.3 1.4-0.3 1.5-0.3 1.5-0.3 1.4-0.3 1.5-0.4 1.4-0.3 1.5-0.4 1.4-0.3 1.5-0.4 1.5-0.3 1.4-0.4 1.5-0.4 1.4-0.4 1.5-0.4 1.4-0.4 1.5-0.4 1.5-0.5 1.4-0.4 1.5-0.4 1.4-0.5 1.5-0.4 1.4-0.5 1.5-0.5 1.4-0.5 1.5-0.5 1.5-0.5 1.4-0.5 1.5-0.5 1.4-0.6 1.5-0.5 1.4-0.6 1.5-0.6 1.5-0.6 1.4-0.6 1.5-0.6 1.4-0.6 1.5-0.6 1.4-0.7 1.5-0.6 1.5-0.7 1.4-0.7 1.5-0.7 1.4-0.7 1.5-0.8 1.4-0.7 1.5-0.8 1.4-0.7 1.5-0.8 1.5-0.8 1.4-0.9 1.5-0.8 1.4-0.9 1.5-0.8 1.4-0.9 1.5-0.9 1.5-1 1.4-0.9 1.5-1 1.4-1 1.5-1 1.4-1 1.5-1 1.5-1.1 1.4-1.1 1.5-1.1 1.4-1.1 1.5-1.2 1.4-1.2 1.5-1.2 1.5-1.2 1.4-1.3 1.5-1.3 1.4-1.3 1.5-1.3 1.4-1.3 1.5-1.4 1.4-1.4 1.5-1.5 1.5-1.5 1.4-1.5 1.5-1.5 1.4-1.6 1.5-1.5 1.4-1.7 1.5-1.6 1.5-1.7 1.4-1.7 1.5-1.8 1.4-1.8 1.5-1.8 1.4-1.9 1.5-1.9 1.5-2 1.4-2 1.5-2 1.4-2 1.5-2.2 1.4-2.1 1.5-2.2 1.5-2.2 1.4-2.3 1.5-2.4 1.4-2.3 1.5-2.5 1.4-2.4 1.5-2.6 1.4-2.5 1.5-2.7 1.5-2.6 1.4-2.8 1.5-2.8 1.4-2.8 1.5-2.9 1.4-3 1.5-3 1.5-3.1 1.4-3.1 1.5-3.2 1.4-3.3 1.5-3.4 1.4-3.4 1.5-3.4 1.5-3.6 1.4-3.6 1.5-3.7 1.4-3.8 1.5-3.8 1.4-3.9"/>
</svg>