<?xml version="1.0" encoding="UTF-8" standalone="no"?>
<!-- Created with Inkscape (http://www.inkscape.org/) -->
<svg
   xmlns:svg="http://www.w3.org/2000/svg"
   xmlns="http://www.w3.org/2000/svg"
   version="1.0"
   x="0.00000000"
   y="0.00000000"
   width="300.00000"
   height="300.00000"
   id="svg2">
  <rect
     width="300.00000"
     height="300.00000"
     x="0.00000000"
     y="0.0"
     style="fill:#ffffff;fill-opacity:1.0000000;stroke:none;stroke-width:2.0000000;stroke-miterlimit:4.0000000;stroke-dasharray:none;stroke-opacity:1.0000000"
     id="rect4242" />
  <path
     d="M 174.80474,0.23349000 L 174.80474,299.76642"
     style="stroke:#000000;stroke-width:0.20000000;stroke-linecap:butt;stroke-linejoin:miter;stroke-miterlimit:4.0000000;stroke-dasharray:none;stroke-opacity:1.0000000"
     id="path5901" />
  <path
     d="M 12.621862,208.84522 L 286.21872,208.84522"
     style="stroke:#000000;stroke-width:0.20000000;stroke-linecap:butt;stroke-linejoin:miter;stroke-miterlimit:4.0000000;stroke-dasharray:none;stroke-opacity:1.0000000"
     id="path4" />
  <path
     d="M 29.142901,198.98863 L 30.599519,198.78952 L 32.056138,198.58638 L 33.512756,198.37913 L 34.969374,198.16771 L 36.425993,197.95200 L 37.882611,197.73195 L 39.339230,197.50744 L 40.795848,197.27840 L 42.252466,197.04474 L 43.709085,196.80635 L 45.165703,196.56315 L 46.622322,196.31504 L 48.078940,196.06191 L 49.535558,195.80367 L 50.992177,195.54021 L 52.448795,195.27144 L 53.905414,194.99723 L 55.362032,194.71748 L 56.818650,194.43208 L 58.275269,194.14091 L 59.731887,193.84387 L 61.188506,193.54082 L 62.645124,193.23165 L 64.101742,192.91624 L 65.558361,192.59445 L 67.014979,192.26616 L 68.471598,191.93124 L 69.928216,191.58956 L 71.384834,191.24097 L 72.841453,190.88534 L 74.298071,190.52253 L 75.754690,190.15238 L 77.211308,189.77476 L 78.667926,189.38951 L 80.124545,188.99648 L 81.581163,188.59551 L 83.037782,188.18644 L 84.494400,187.76911 L 85.951018,187.34334 L 87.407637,186.90897 L 88.864255,186.46583 L 90.320874,186.01374 L 91.777492,185.55251 L 93.234110,185.08197 L 94.690729,184.60192 L 96.147347,184.11217 L 97.603966,183.61253 L 99.060584,183.10280 L 100.51720,182.58276 L 101.97382,182.05223 L 103.43044,181.51097 L 104.88706,180.95878 L 106.34368,180.39544 L 107.80029,179.82072 L 109.25691,179.23438 L 110.71353,178.63620 L 112.17015,178.02594 L 113.62677,177.40335 L 115.08339,176.76818 L 116.54001,176.12018 L 117.99662,175.45909 L 119.45324,174.78465 L 120.90986,174.09658 L 122.36648,173.39461 L 123.82310,172.67846 L 125.27972,171.94784 L 126.73633,171.20247 L 128.19295,170.44203 L 129.64957,169.66624 L 131.10619,168.87477 L 132.56281,168.06731 L 134.01943,167.24354 L 135.47604,166.40313 L 136.93266,165.54575 L 138.38928,164.67104 L 139.84590,163.77866 L 141.30252,162.86826 L 142.75914,161.93946 L 144.21575,160.99190 L 145.67237,160.02520 L 147.12899,159.03897 L 148.58561,158.03282 L 150.04223,157.00634 L 151.49885,155.95912 L 152.95547,154.89075 L 154.41208,153.80080 L 155.86870,152.68883 L 157.32532,151.55439 L 158.78194,150.39704 L 160.23856,149.21631 L 161.69518,148.01173 L 163.15179,146.78281 L 164.60841,145.52907 L 166.06503,144.24999 L 167.52165,142.94508 L 168.97827,141.61381 L 170.43489,140.25565 L 171.89150,138.87005 L 173.34812,137.45645 L 174.80474,136.01430 L 176.26136,134.54302 L 177.71798,133.04202 L 179.17460,131.51069 L 180.63121,129.94843 L 182.08783,128.35461 L 183.54445,126.72859 L 185.00107,125.06973 L 186.45769,123.37735 L 187.91431,121.65078 L 189.37092,119.88934 L 190.82754,118.09231 L 192.28416,116.25898 L 193.74078,114.38861 L 195.19740,112.48046 L 196.65402,110.53377 L 198.11064,108.54774 L 199.56725,106.52160 L 201.02387,104.45452 L 202.48049,102.34569 L 203.93711,100.19426 L 205.39373,97.999360 L 206.85035,95.760130 L 208.30696,93.475660 L 209.76358,91.145040 L 211.22020,88.767340 L 212.67682,86.341600 L 214.13344,83.866870 L 215.59006,81.342140 L 217.04667,78.766400 L 218.50329,76.138640 L 219.95991,73.457780 L 221.41653,70.722780 L 222.87315,67.932520 L 224.32977,65.085890 L 225.78638,62.181760 L 227.24300,59.218960 L 228.69962,56.196310 L 230.15624,53.112600 L 231.61286,49.966590 L 233.06948,46.757030 L 234.52610,43.482630 L 235.98271,40.142090 L 237.43933,36.734060 L 238.89595,33.257180 L 240.35257,29.710070 L 241.80919,26.091300 L 243.26581,22.399420 L 244.72242,18.632970 L 246.17904,14.790420 L 247.63566,10.870260"
     style="fill:none;stroke:#0000c8;stroke-width:2.0000000;stroke-linecap:butt;stroke-linejoin:miter;stroke-miterlimit:4.0000000;stroke-dasharray:none;stroke-opacity:1.0000000"
     id="path5900" />
  <defs
     id="defs8" />
</svg>
