<svg xmlns="http://www.w3.org/2000/svg" width="250" height="161" viewBox="0 0 267 172" fill="none" role="img" aria-labelledby="titleidbb00c7a0d" style="width: 250px; height: 161px; display: block; transform: scale(1, 1); transition-property: none;"><defs><linearGradient class="cerosgradient" data-cerosgradient="true" id="CerosGradient_id107acbf08" gradientUnits="userSpaceOnUse" x1="50%" y1="100%" x2="50%" y2="0%"><stop offset="0%" stop-color="#d1d1d1" style="transition-property: none;"></stop><stop offset="100%" stop-color="#d1d1d1" style="transition-property: none;"></stop></linearGradient><linearGradient></linearGradient></defs>
<path d="M16.7436 80V96.6169C16.7436 99.6624 15.2156 101 12.6118 101C10.008 101 8.5 99.6624 8.5 96.5963V80H11.4758V96.5654C11.4758 97.9339 11.7572 98.4792 12.6118 98.4792C13.4663 98.4792 13.7478 97.9236 13.7478 96.5345V80H16.7436Z" fill="#FF0000" style="transition-property: none;"></path>
<path d="M19.5183 80H22.7454L24.8465 90.0113L25.2386 92.1205V80H27.8525V100.732H25.0175L22.5243 89.0235L22.1221 86.904V100.732H19.5183V80Z" fill="#FF0000" style="transition-property: none;"></path>
<path d="M33.623 82.4076V98.3248H34.1659C35.5834 98.3248 35.9252 97.7486 35.9252 95.66V84.9902C35.9252 83.0456 35.5029 82.4076 34.1659 82.4076H33.623ZM34.196 80C37.031 80 38.9814 81.0186 38.9814 84.8976V95.7423C38.9814 99.6316 37.0511 100.732 34.196 100.732H30.6271V80H34.196Z" fill="#FF0000" style="transition-property: none;"></path>
<path d="M41.7561 80H48.2705V82.4076H44.762V88.437H47.5367V90.8138H44.762V98.3248H48.4716V100.732H41.7561V80Z" fill="#FF0000" style="transition-property: none;"></path>
<path d="M54.9358 89.1676C56.0115 89.1676 56.1824 88.7869 56.1824 87.3978V84.095C56.1824 82.7883 55.9311 82.3562 54.966 82.3562H54.0009V89.1676H54.9358ZM50.995 80H54.9358C58.1127 80 59.0979 81.3376 59.0979 84.0333V87.511C59.0979 89.4248 58.6756 90.3199 57.4592 90.8447L59.5 100.732H56.3835L54.6242 91.246H54.0009V100.732H50.995V80Z" fill="#FF0000" style="transition-property: none;"></path>
<path d="M156.499 8.53C154.581 8.53 153.08 8.94 151.57 9.77C151.57 5.37 151.57 1.37 151.709 0L142.546 1.65V2.48L143.5 2.62C144.732 2.89 145.14 3.58 145.418 5.23C145.686 8.53 145.557 26.15 145.418 29.04C147.883 29.59 150.477 30 153.08 30C160.335 30 164.708 25.46 164.708 18.3C164.698 12.65 161.15 8.53 156.499 8.53ZM153.349 28.48C152.802 28.48 152.116 28.48 151.709 28.34C151.57 26.41 151.441 18.29 151.57 11.14C152.395 10.86 152.941 10.73 153.627 10.73C156.638 10.73 158.278 14.31 158.278 18.71C158.278 24.22 156.221 28.48 153.349 28.48Z" fill="white" style="transition-property: none;"></path>
<path d="M108.07 0.539993H84V1.77999L85.3715 1.91999C87.1504 2.18999 87.8361 3.29999 88.1045 5.90999C88.5119 10.87 88.3827 19.81 88.1045 24.08C87.8262 26.69 87.1504 27.93 85.3715 28.07L84 28.35V29.45H99.4539V28.35L97.8141 28.07C96.0352 27.93 95.3494 26.7 95.0811 24.08C94.942 22.29 94.8028 19.4 94.8028 15.82L98.0824 15.96C100.14 15.96 101.094 17.61 101.501 19.95H102.734V10.18H101.501C101.094 12.52 100.13 14.17 98.0824 14.17L94.8028 14.31C94.8028 9.62999 94.942 5.22999 95.0811 2.60999H99.8713C103.568 2.60999 105.476 4.94999 106.848 9.07999L108.219 8.66999L108.07 0.539993Z" fill="white" style="transition-property: none;"></path>
<path d="M115.872 8.25C122.709 8.25 126.128 12.93 126.128 19.12C126.128 25.04 122.302 29.99 115.454 29.99C108.617 29.99 105.198 25.31 105.198 19.12C105.198 13.2 109.034 8.25 115.872 8.25ZM115.464 9.63C112.453 9.63 111.638 13.76 111.638 19.13C111.638 24.36 113.01 28.63 115.743 28.63C118.883 28.63 119.708 24.5 119.708 19.13C119.698 13.89 118.336 9.63 115.464 9.63Z" fill="white" style="transition-property: none;"></path>
<path d="M166.477 19.26C166.477 13.62 170.035 8.25 177.012 8.25C182.756 8.25 185.499 12.52 185.499 18.16H172.778C172.639 23.25 175.103 26.97 180.033 26.97C182.219 26.97 183.312 26.42 184.684 25.46L185.23 26.15C183.859 28.08 180.858 30 177.022 30C170.86 30 166.477 25.59 166.477 19.26ZM172.768 16.65L179.198 16.51C179.198 13.76 178.791 9.63 176.465 9.63C174.139 9.63 172.907 13.48 172.768 16.65Z" fill="white" style="transition-property: none;"></path>
<path d="M201.768 9.35C200.128 8.66 197.941 8.25 195.477 8.25C190.418 8.25 187.268 11.28 187.268 14.86C187.268 18.44 189.593 19.95 192.873 21.05C196.292 22.29 197.246 23.25 197.246 24.9C197.246 26.55 196.013 28.06 193.827 28.06C191.223 28.06 189.315 26.55 187.804 22.42L186.85 22.7L186.99 28.76C188.629 29.45 191.641 30 194.244 30C199.581 30 203 27.25 203 22.98C203 20.09 201.499 18.44 197.941 17.06C194.115 15.55 192.744 14.58 192.744 12.79C192.744 11 193.976 9.76 195.616 9.76C198.081 9.76 199.72 11.27 200.953 14.99L201.907 14.72L201.768 9.35Z" fill="white" style="transition-property: none;"></path>
<path d="M143.907 8.8C141.582 7.42 137.477 8.11 135.291 13.07L135.43 8.25L126.267 10.04V10.87L127.221 11.01C128.454 11.15 129 11.84 129.139 13.63C129.418 16.93 129.278 22.71 129.139 25.61C129 27.26 128.454 28.09 127.221 28.22L126.267 28.36V29.46H138.988V28.36L137.348 28.22C135.977 28.08 135.569 27.26 135.43 25.61C135.162 22.99 135.162 17.76 135.291 14.46C135.977 13.5 138.988 12.67 141.721 14.46L143.907 8.8Z" fill="white" style="transition-property: none;"></path>
<path d="M28.5 107.962H60.3153C61.1533 115.773 66.7302 121.081 81.1065 121.081C93.5273 121.081 99.5233 117.17 99.5233 110.196C99.5233 103.642 93.5273 100.569 81.5155 100.569H70.3717V80.4657H80.9768C92.8389 80.4657 98.7052 77.1135 98.7052 70.8381C98.7052 65.2512 93.3976 61.6296 82.2338 61.6296C71.3494 61.6296 64.9245 66.0992 63.2584 73.6316H31.9918C33.6679 53.5385 51.2466 40 83.9099 40C113.919 40 132.197 50.0466 132.197 67.2166C132.197 78.3806 124.664 85.7733 111.685 88.9859C126.759 91.3603 135.549 99.3118 135.549 111.034C135.549 130.29 116.853 143 82.7925 143C46.0887 142.99 29.757 129.312 28.5 107.962Z" fill="white" style="transition-property: none;"></path>
<path d="M223.053 94.7025V87.8685C223.053 71.6762 214.962 63.0263 198.212 63.0263C181.321 63.0263 173.37 71.5365 173.37 87.8685V94.5629C173.37 110.895 181.461 119.265 198.631 119.265C215.93 119.265 223.053 110.615 223.053 94.7025ZM137.644 94.7025V88.0081C137.644 57.4394 160.67 40 198.072 40C235.474 40 258.5 57.7287 258.5 87.3098V93.8645C258.5 124.014 237.29 142.99 197.653 142.99C158.016 142.99 137.644 123.875 137.644 94.7025Z" fill="white" style="transition-property: none;"></path>
<path d="M21.6604 171V158.144H24.9147L33.0417 167.871V158.144H35.4151V171H32.5742L24.0337 160.661V171H21.6604ZM46.1799 171.18C40.8398 171.18 37.5315 168.339 37.5315 164.653V164.509C37.5315 160.751 41.0016 157.982 46.1619 157.982C51.3581 157.982 54.8103 160.697 54.8103 164.455V164.599C54.8103 168.339 51.43 171.18 46.1799 171.18ZM46.2158 169.274C49.8118 169.274 52.0414 167.386 52.0414 164.599V164.455C52.0414 161.848 49.8658 159.852 46.1619 159.852C42.44 159.852 40.2824 161.74 40.2824 164.491V164.635C40.2824 167.422 42.6918 169.274 46.2158 169.274ZM56.972 171V158.144H63.4807C66.7351 158.144 69.0725 159.313 69.0725 162.046V162.118C69.0725 164.275 67.4903 165.336 65.7462 165.786L70.1153 171H67.0947L63.0852 166.271H59.615V171H56.972ZM59.615 164.401H63.4448C65.2967 164.401 66.4474 163.664 66.4474 162.226V162.154C66.4474 160.572 65.2248 159.978 63.4448 159.978H59.615V164.401ZM75.3047 171V160.032H70.2883V158.144H83.0001V160.032H77.9657V171H75.3047ZM84.7835 171V158.144H87.4266V163.61H96.021V158.144H98.6641V171H96.021V165.534H87.4266V171H84.7835ZM105.069 171L111.038 158.144H114.508L120.442 171H117.655L116.216 167.818H108.989L107.514 171H105.069ZM112.656 159.906L109.798 166.056H115.425L112.656 159.906ZM122.113 171V158.144H125.619L130.779 167.278L135.832 158.144H139.302V171H136.731V160.733L131.049 171H130.186L124.468 160.733V171H122.113ZM142.253 171V158.144H153.67V159.996H144.896V163.52H152.322V165.372H144.896V169.148H154.084V171H142.253ZM156.143 171V158.144H162.652C165.906 158.144 168.243 159.313 168.243 162.046V162.118C168.243 164.275 166.661 165.336 164.917 165.786L169.286 171H166.266L162.256 166.271H158.786V171H156.143ZM158.786 164.401H162.616C164.468 164.401 165.618 163.664 165.618 162.226V162.154C165.618 160.572 164.396 159.978 162.616 159.978H158.786V164.401ZM171.033 171V158.144H173.694V171H171.033ZM184.254 171.18C179.04 171.18 175.893 168.609 175.893 164.653V164.509C175.893 160.644 179.579 157.982 184.236 157.982C188.371 157.982 191.23 159.421 191.68 162.442H189.001C188.605 160.805 187.167 159.852 184.254 159.852C180.928 159.852 178.662 161.686 178.662 164.491V164.635C178.662 167.476 180.784 169.256 184.254 169.256C187.113 169.256 188.893 168.357 189.324 166.523H191.877C191.338 169.634 188.515 171.18 184.254 171.18ZM192.089 171L198.059 158.144H201.529L207.462 171H204.675L203.237 167.818H196.009L194.535 171H192.089ZM199.677 159.906L196.818 166.056H202.446L199.677 159.906ZM212.58 171V170.389L219.053 165.426C220.833 164.078 221.66 163.125 221.66 161.902C221.66 160.572 220.581 159.816 218.711 159.816C216.805 159.816 215.564 160.661 215.259 162.531H212.831C213.101 159.727 215.313 157.982 218.783 157.982C222.289 157.982 224.303 159.493 224.303 161.812C224.303 163.52 223.026 164.941 221.048 166.379L217.219 169.166H224.411V171H212.58ZM232.935 171.18C228.368 171.18 225.815 168.681 225.815 165.085V164.078C225.815 160.392 228.422 157.982 232.917 157.982C237.412 157.982 240.001 160.464 240.001 164.024V165.013C240.001 168.663 237.574 171.18 232.935 171.18ZM232.989 169.292C235.974 169.292 237.358 167.728 237.358 165.174V164.042C237.358 161.525 235.812 159.816 232.917 159.816C230.004 159.816 228.494 161.417 228.494 164.06V165.067C228.494 167.764 230.076 169.292 232.989 169.292ZM240.937 171V170.389L247.41 165.426C249.19 164.078 250.017 163.125 250.017 161.902C250.017 160.572 248.938 159.816 247.068 159.816C245.162 159.816 243.922 160.661 243.616 162.531H241.189C241.458 159.727 243.67 157.982 247.14 157.982C250.646 157.982 252.66 159.493 252.66 161.812C252.66 163.52 251.383 164.941 249.405 166.379L245.576 169.166H252.768V171H240.937ZM259.959 171.18C256.058 171.18 254.224 169.49 254.008 167.314H256.471C256.759 168.465 257.55 169.346 259.923 169.346C262.189 169.346 263.412 168.303 263.412 166.703C263.412 165.103 262.099 164.186 259.852 164.186C257.982 164.186 256.795 164.671 255.95 165.444H254.637L254.745 158.144H265.228V160.014H256.795L256.759 163.61C257.478 162.981 258.809 162.459 260.715 162.459C263.933 162.459 266.091 163.916 266.091 166.721C266.091 169.454 263.627 171.18 259.959 171.18Z" fill="white" style="transition-property: none;"></path>
<title id="titleidbb00c7a0d"></title></svg>