<?xml version="1.0" encoding="utf-8" standalone="no"?>
<!DOCTYPE svg PUBLIC "-//W3C//DTD SVG 1.1//EN"
  "http://www.w3.org/Graphics/SVG/1.1/DTD/svg11.dtd">
<svg xmlns:xlink="http://www.w3.org/1999/xlink" width="349.2pt" height="236.16pt" viewBox="0 0 349.2 236.16" xmlns="http://www.w3.org/2000/svg" version="1.1">
 <metadata>
  <rdf:RDF xmlns:dc="http://purl.org/dc/elements/1.1/" xmlns:cc="http://creativecommons.org/ns#" xmlns:rdf="http://www.w3.org/1999/02/22-rdf-syntax-ns#">
   <cc:Work>
    <dc:type rdf:resource="http://purl.org/dc/dcmitype/StillImage"/>
    <dc:date>2024-11-29T19:34:06.996627</dc:date>
    <dc:format>image/svg+xml</dc:format>
    <dc:creator>
     <cc:Agent>
      <dc:title>Matplotlib v3.6.3, https://matplotlib.org/</dc:title>
     </cc:Agent>
    </dc:creator>
   </cc:Work>
  </rdf:RDF>
 </metadata>
 <defs>
  <style type="text/css">*{stroke-linejoin: round; stroke-linecap: butt}</style>
 </defs>
 <g id="figure_1">
  <g id="patch_1">
   <path d="M 0 236.16 
L 349.2 236.16 
L 349.2 0 
L 0 0 
z
" style="fill: #ffffff"/>
  </g>
  <g id="axes_1">
   <g id="line2d_1">
    <path d="M 22.418182 218.88 
L 32.177336 207.410382 
L 41.936491 196.272392 
L 51.695646 185.466027 
L 61.454801 174.99129 
L 71.213955 164.848178 
L 80.97311 155.036694 
L 90.732265 145.556836 
L 99.881472 136.970654 
L 109.03068 128.67594 
L 118.179887 120.672695 
L 127.329095 112.960919 
L 136.478302 105.540611 
L 145.62751 98.411772 
L 154.776717 91.574402 
L 163.925925 85.028501 
L 172.465185 79.181962 
L 181.004445 73.589326 
L 189.543706 68.25059 
L 198.082966 63.165757 
L 206.622226 58.334825 
L 215.161487 53.757795 
L 223.700747 49.434666 
L 232.240007 45.365439 
L 240.779268 41.550114 
L 249.318528 37.98869 
L 257.857788 34.681168 
L 266.397049 31.627547 
L 274.326362 29.019388 
L 282.255675 26.630154 
L 290.184988 24.459846 
L 298.114301 22.508463 
L 306.043615 20.776005 
L 313.972928 19.262473 
L 321.902241 17.967866 
L 326.781818 17.28 
L 326.781818 17.28 
" clip-path="url(#p652b2cce09)" style="fill: none; stroke: #ffaf00; stroke-width: 1.5; stroke-linecap: square"/>
   </g>
  </g>
 </g>
 <defs>
  <clipPath id="p652b2cce09">
   <rect x="7.2" y="7.2" width="334.8" height="221.76"/>
  </clipPath>
 </defs>
</svg>
