<svg version="1.2" xmlns="http://www.w3.org/2000/svg" viewBox="0 0 2495 1998" width="2495" height="1998">
	<title>blender-svg</title>
	<style>
		.s0 { fill: #ffffff } 
	</style>
	<path class="s0" d="m1311.4 1127.3c4.5-81.5 44.5-153.4 104.7-204.3 59.1-50.1 138.7-80.6 225.4-80.6 86.8 0.1 166.3 30.6 225.4 80.6 60.2 51 100.2 122.8 104.8 204.3 4.6 83.8-29.1 161.7-88.2 219.4-60.2 58.7-146 95.6-242 95.6-96 0-181.9-36.9-242.1-95.6-59-57.7-92.6-135.6-88-219.4z"/>
	<path fill-rule="evenodd" class="s0" d="m792 1207.5l-479.4 392.3c-83.8 67.7-196.4 67.6-249.4-0.3-52.1-66.8-25.3-172.4 57.5-235.8 1-0.8 2.2-1.6 3.3-2.5l878.5-674.3-492.3 1 0.1-0.3c-83.5-0.4-138-56.6-122.4-124.4 15.3-66.5 92.5-119.2 172.7-119.3h1.3l971.3-1-318.6-259.2 0.2-0.1c-49.5-40.7-43.2-105.2 12.6-144.2 55.1-38.6 139.3-38.7 189.6-0.3 0.6 0.5 1.3 1.1 1.9 1.6l763.8 586.4-0.1 0.1c75.7 58.8 139.3 128.6 188.8 208.2 54 86.7 89.1 181.8 103.5 283.2 7.3 51.7 9 104.1 5 156.1-4.2 53.3-14.5 106-30.5 157.1-32.1 102.5-86.4 197.5-162.1 281.5-77.7 86.1-173.3 155.3-283.8 204.8-116.2 51.9-242.1 78.6-372.8 78.8-130.7 0.3-256.6-26-372.9-77.5-110.6-48.9-206.2-117.9-284-203.8-75.8-83.6-130.2-178.5-162.3-281-15.2-48.5-25.4-110.5-26-142.3-0.5-31.8 6.5-84.8 6.5-84.8zm1331.2 96.6c21.5-59.1 29.8-122.1 24.3-184.7-5.3-61-23.4-120.2-53.1-173.8-28.8-52.3-68.5-99.4-117.4-139.3-96.1-77.9-218.2-120-346.2-119.8-128 0.2-250.2 42.5-346.2 120.8-49 40-88.7 87.3-117.6 139.7-29.7 53.6-47.7 112.9-53 173.9-5.5 62.5 2.7 125.6 24.2 184.6 22 60.1 57.4 116.3 105.7 165.3 98.8 100.5 237.1 157.1 386.9 156.8 149.7-0.2 287.9-57.2 386.7-158 48.2-49.2 83.7-105.5 105.7-165.5z"/>
</svg>