<svg version="1.2" xmlns="http://www.w3.org/2000/svg" viewBox="0 0 90 90" width="90" height="90">
	<title>cssda-best-ui-white-svg</title>
	<style>
		.s0 { fill: #ffffff } 
		.s1 { fill: #000000 } 
		.s2 { fill: #231f20 } 
	</style>
	<path class="s0" d="m45 90c-24.9 0-45-20.1-45-45 0-24.9 20.1-45 45-45 24.9 0 45 20.1 45 45 0 24.9-20.1 45-45 45z"/>
	<path class="s1" d="m32.6 43.6q0.3 0 0.6 0c0.2 0 0.3 0 0.5 0.2l0.4-1c-0.5-0.2-0.9-0.3-1.4-0.3-0.5 0-0.9 0-1.2 0.3-0.3 0.2-0.6 0.5-0.8 0.8-0.2 0.3-0.3 0.8-0.3 1.3q0 1.2 0.6 1.8c0.4 0.4 0.9 0.6 1.6 0.6 0.7 0 0.9 0 1.3-0.3v-1.1c-0.2 0-0.4 0.2-0.6 0.2q-0.3 0-0.6 0c-0.7 0-1-0.4-1-1.3 0-0.9 0.1-0.8 0.3-1 0-0.3 0.3-0.4 0.6-0.4z"/>
	<path class="s1" d="m38.2 46.3c-0.2 0-0.5 0-0.7 0-0.3 0-0.5-0.2-0.8-0.3v1.1c0.2 0 0.4 0.2 0.7 0.2 0.3 0 0.5 0 0.8 0 0.3 0 0.7 0 1-0.2 0.3 0 0.5-0.3 0.6-0.5 0.1-0.2 0.2-0.5 0.2-0.8 0-0.3 0-0.6-0.2-0.8-0.2-0.2-0.4-0.4-0.8-0.6-0.4-0.2-0.7-0.3-0.8-0.4-0.2 0-0.2 0-0.2-0.2 0-0.2 0-0.2 0-0.2 0 0 0.2 0 0.4 0 0.3 0 0.7 0 1.1 0.3l0.4-1q-0.7-0.3-1.5-0.3c-0.5 0-1 0-1.3 0.4-0.3 0.2-0.5 0.6-0.5 1 0 0.4 0 0.4 0 0.6 0 0.2 0.2 0.3 0.3 0.4 0.2 0 0.4 0.3 0.7 0.4q0.5 0.3 0.6 0.3c0.1 0 0 0 0.2 0 0 0 0 0 0 0.2 0 0.2 0 0.2 0 0.3 0 0.1-0.2 0-0.4 0z"/>
	<path class="s1" d="m44.1 46.3c-0.2 0-0.5 0-0.7 0-0.3 0-0.5-0.2-0.8-0.3v1.1c0.2 0 0.4 0.2 0.7 0.2 0.3 0 0.5 0 0.8 0 0.3 0 0.7 0 1-0.2 0.3 0 0.5-0.3 0.6-0.5 0.1-0.2 0.2-0.5 0.2-0.8 0-0.3 0-0.6-0.2-0.8-0.2-0.2-0.4-0.4-0.8-0.6-0.4-0.2-0.7-0.3-0.8-0.4v-0.2-0.2c0 0 0.2 0 0.4 0 0.3 0 0.7 0 1.1 0.3l0.4-1q-0.7-0.3-1.5-0.3c-0.5 0-1 0-1.3 0.4-0.3 0.2-0.5 0.6-0.5 1 0 0.4 0 0.4 0 0.6 0 0.2 0.2 0.3 0.3 0.4 0.2 0 0.4 0.3 0.7 0.4q0.5 0.3 0.6 0.3c0.1 0 0 0 0.2 0 0 0 0 0 0 0.2 0 0.2 0 0.2 0 0.3 0 0.1-0.3 0-0.5 0z"/>
	<path fill-rule="evenodd" class="s1" d="m52.2 46.6q-0.6 0.6-1.8 0.6h-1.5v-4.7h1.6c0.7 0 1.3 0.2 1.7 0.6 0.4 0.4 0.6 1 0.6 1.7q0 1.2-0.6 1.8zm-0.6-1.7c0-0.5-0.1-0.7-0.3-1-0.2-0.3-0.5-0.3-0.8-0.3h-0.4v2.6h0.3c0.3 0 0.6-0.1 0.8-0.3 0.2-0.2 0.3-0.6 0.4-1z"/>
	<path fill-rule="evenodd" class="s1" d="m57 46.4l-0.2 0.9h-1.4l1.5-4.7h1.7l1.5 4.7h-1.4l-0.2-0.9zm0.4-2.5c-0.1 0.2-0.2 0.7-0.4 1.6h1l-0.2-0.8c-0.2-0.2-0.2-0.4-0.2-0.7q0-0.1 0-0.1z"/>
	<path class="s1" d="m51.2 39.2l-4.8-4.8-4.7 4.8h-2.7l10-10h-10.5l-10.1 10h-3.8v0.7h41.2v-0.7h-14.6z"/>
	<path class="s1" d="m24.6 50.6h14.5l4.7 4.7 4.8-4.7h2.6l-10 10h10.5l5.3-5.2 4.7-4.8h4.1v-0.7h-41.2v0.7z"/>
	<g>
		<path fill-rule="evenodd" class="s2" d="m24.8 73.2l0.4-1-1.8-1.5-0.9 0.5-1-0.9 5.3-2.9 1.1 1-2.1 5.7zm1.8-4.4l-2.2 1.3 1.3 1.1z"/>
		<path class="s2" d="m31.5 77.2l0.8-3.9-2.6 3.1-1.1-0.6 1.1-5.8 1.2 0.6-0.9 4.1 2.8-3.2 0.8 0.4-0.9 4.1 2.7-3.3 1.2 0.6-3.9 4.4-1.1-0.6z"/>
		<path fill-rule="evenodd" class="s2" d="m39.9 79.7v-1c-0.1 0-2.5-0.5-2.5-0.5l-0.5 0.9-1.3-0.3 3.2-5.1 1.4 0.3 1 6zm-0.6-4.7l-1.3 2.2 1.7 0.3-0.4-2.6z"/>
		<path fill-rule="evenodd" class="s2" d="m46.7 79.9l0.1 0.1zm-1-1.9h-0.9v2h-1.2l-0.1-5.6h2.6c1.2 0 1.9 0.7 1.9 1.7 0 1-0.6 1.6-1.2 1.7l1.3 2.1h-1.4zm1.2-1.8c0-0.5-0.4-0.8-0.8-0.7h-1.2v1.6h1.2c0.5 0 0.8-0.3 0.8-0.8z"/>
		<path fill-rule="evenodd" class="s2" d="m51 79.6l-1.4-5.5 2.1-0.6c1.7-0.4 3.1 0.3 3.6 2 0.5 1.7-0.4 3-2.1 3.5l-2.1 0.6zm3.1-3.7c-0.3-1-1-1.6-2.1-1.3l-1 0.3 0.9 3.4 1-0.3c1.1-0.3 1.5-1.2 1.2-2.2z"/>
		<path class="s2" d="m58.5 77.2l-2.6-5 3.5-1.8 0.5 0.9-2.4 1.3 0.6 1.1 2.4-1.2 0.5 0.9-2.4 1.2 0.6 1.1 2.4-1.3 0.5 0.9-3.5 1.8z"/>
		<path fill-rule="evenodd" class="s2" d="m64.3 73.8l-3.7-4.3 1.7-1.4c1.3-1.1 3-1 4.1 0.3 1.1 1.3 0.9 2.9-0.4 4.1l-1.7 1.4zm1.2-4.6c-0.6-0.8-1.6-1-2.5-0.2l-0.8 0.6 2.3 2.7 0.8-0.6c0.8-0.7 0.8-1.7 0.2-2.5z"/>
	</g>
	<g>
		<path fill-rule="evenodd" class="s2" d="m17.9 35.2l-5.2-2.2 1.1-2.6c0.4-1 1.2-1.2 1.9-0.9 0.7 0.3 0.9 0.8 0.8 1.4 0.3-0.5 1-0.7 1.7-0.4 0.8 0.3 1.2 1.1 0.8 2.1l-1.1 2.7zm-2.4-4.6c-0.3-0.1-0.7 0-0.8 0.3l-0.6 1.3 1.1 0.5 0.6-1.3c0.2-0.4 0-0.7-0.3-0.8zm2.1 0.8c-0.3-0.1-0.7 0-0.9 0.4l-0.6 1.4 1.2 0.5 0.6-1.4c0.2-0.4 0-0.7-0.3-0.9z"/>
		<path class="s2" d="m20.5 29.5l-4.7-3.2 2.2-3.2 0.9 0.6-1.5 2.2 1 0.7 1.5-2.2 0.9 0.6-1.5 2.2 1.1 0.7 1.5-2.2 0.9 0.6-2.2 3.2z"/>
		<path class="s2" d="m23 24.6l-0.2-1.1c0.6 0 1.2-0.2 1.8-0.7 0.5-0.5 0.5-0.9 0.2-1.1-0.7-0.7-2.4 2-4 0.5-0.7-0.7-0.7-1.8 0.2-2.7q0.9-0.9 2.1-0.9l0.2 1.1c-0.6 0-1.2 0.3-1.6 0.7-0.4 0.4-0.4 0.7-0.1 1 0.6 0.6 2.4-2 3.9-0.5 0.7 0.7 0.8 1.8-0.3 2.8-0.7 0.7-1.5 1-2.3 1z"/>
		<path class="s2" d="m28.9 20.4l-2.6-3.8-1.3 0.9-0.6-0.9 3.6-2.4 0.6 0.9-1.3 0.9 2.6 3.8-1 0.7z"/>
		<path class="s2" d="m34.8 14.7l-0.9-3.3 1.1-0.3 0.9 3.2c0.2 0.8 0.8 1.2 1.6 0.9 0.8-0.3 1.1-0.9 0.9-1.6l-0.9-3.2 1.1-0.3 0.9 3.3c0.4 1.4-0.1 2.5-1.7 2.9-1.6 0.4-2.6-0.3-3-1.6z"/>
		<path class="s2" d="m42 15.4l-0.5-5.6h1.2l0.5 5.5h-1.2z"/>
		<path fill-rule="evenodd" class="s2" d="m48.2 15.3l1.1-5.6 2.1 0.4c1.7 0.3 2.6 1.7 2.3 3.4-0.3 1.7-1.7 2.5-3.4 2.2zm4.3-2c0.2-1-0.2-1.9-1.3-2.1l-1-0.2-0.7 3.5 1 0.2c1.1 0.2 1.8-0.5 2-1.4z"/>
		<path class="s2" d="m54.7 16.9l2.3-5.2 3.5 1.6-0.4 1-2.5-1.1-0.5 1.1 2.4 1.1-0.4 1-2.4-1.1-0.5 1.2 2.5 1.1-0.4 1-3.5-1.6z"/>
		<path class="s2" d="m59.8 18.5l1-0.4c0 0.6 0.3 1.2 1 1.6 0.5 0.4 0.9 0.3 1.1 0 0.6-0.8-2.4-2.1-1.1-3.8 0.5-0.8 1.6-0.9 2.7-0.2 0.7 0.5 1.1 1.1 1.3 1.9l-1 0.3c-0.1-0.6-0.5-1.1-0.9-1.4-0.4-0.3-0.8-0.3-1 0-0.5 0.7 2.4 2.1 1.1 3.8-0.6 0.8-1.6 1.1-2.8 0.2-0.8-0.6-1.2-1.3-1.3-2.1z"/>
		<path class="s2" d="m64.2 23l4-4 0.8 0.8-4 4z"/>
		<path class="s2" d="m68.6 23.3c1.5-1.1 3.1-0.7 4.1 0.6 0.7 0.9 0.6 1.8 0.3 2.6l-1-0.5c0.2-0.4 0.2-1-0.2-1.5-0.6-0.8-1.6-0.9-2.5-0.3-0.9 0.6-1.1 1.7-0.5 2.5 0.3 0.4 0.7 0.6 1 0.7l0.6-0.4-0.8-1.2 0.9-0.6 1.5 2.1-1.8 1.3c-0.9 0-1.7-0.4-2.2-1.2-0.9-1.3-0.8-3 0.7-4.1z"/>
		<path class="s2" d="m71.7 34.1l2.4-3.8-3.4 1.5-0.5-1.1 5.2-2.2 0.5 1.1-2.3 3.7 3.3-1.4 0.5 1.1-5.2 2.2-0.4-1z"/>
	</g>
</svg>