<svg version="1.2" xmlns="http://www.w3.org/2000/svg" viewBox="0 0 512 512" width="512" height="512">
	<title>houdini-svgrepo-com-svg</title>
	<style>
		.s0 { fill: #ffffff } 
	</style>
	<g id="2069a460dcf28295e231f3111e041a3f">
		<path fill-rule="evenodd" class="s0" d="m504.6 0.5v511h-201.3c4.1-2.4 8.2-4.8 12.3-7.5 93.5-63.7 117.4-189.7 89.7-255.7-23.7-56.7-78.8-111.8-148.8-133.9-44.4-14.1-119.8-38.6-205.4 11-0.8 0.5-20.3 10.9-43.7 31.6v-156.5zm-218.7 450.2c-46.9 46-129.2 36.1-167.6 9.9-38.5-26.2-65.1-50.8-59.1-110.1 6.3-62.7 67.9-93.9 109-90.3 49 4.2 71.4 43.4 61 71.7-11.8 32.3-46 49.1-63.9 30.6-25.9-26.4-5.2-46.5-5.2-46.5 0 0-79.4 11.7-43.8 83.4 32.7 65.8 139.1 36.1 168-32.9 16.1-38.3 37.6-132.9-96.5-167.2-79-20.3-149.6 35.9-180.5 102.9v-79.7c21.9-24 45.4-40.1 59.4-49.5 47.7-32 88.3-31.6 149-17.9 58.4 13.3 111.2 74.2 121.9 125.6 14.3 68.7-0.6 120-51.7 170zm-208.7 50.2c5.2 3.5 11.1 7.1 17.6 10.6h-87.5v-21.4c3.3 1.8 6.4 3.3 9.1 4.5-2.9-1.8-6-4.1-9.1-6.6v-60.4c16.8 30.9 44.2 55.7 69.9 73.3z"/>
	</g>
</svg>