<svg version="1.2" xmlns="http://www.w3.org/2000/svg" viewBox="0 0 256 256" width="256" height="256">
	<title>nextjs-icon-svgrepo-com-svg</title>
	<style>
		.s0 { fill: #ffffff } 
	</style>
	<g>
		<path fill-rule="evenodd" class="s0" d="m140.6 0.4c9.8 1.1 18.5 2.9 26.7 5.6 46.4 14.9 80.6 55.3 87.5 103.4 1.1 7 1.2 9.1 1.2 18.6 0 9.6-0.1 11.6-1.2 18.7-3.5 24.1-13.9 46.8-30.1 65.4-7.6 8.8-17.2 17.2-26.3 23.1l-1 0.6-20.3-30.7c-11.1-16.8-33.9-51.3-50.5-76.4-16.6-25.2-30.5-46.2-30.9-46.6-1.3-1.4-2.1-1.6-7.2-1.6-4.4 0-4.8 0-5.8 0.5-0.6 0.4-1.4 1-1.8 1.6l-0.8 0.9-0.1 50.2v50.2l0.5 1.1q0.5 1.1 1.7 1.8l1.1 0.8h4.3c3.8 0 4.5-0.1 5.3-0.5 1.1-0.6 1.6-1.1 2.2-2.3 0.5-0.8 0.5-2.3 0.6-38.3 0-20.6 0.1-37.5 0.2-37.5 0.1 0 11.7 17.1 25.8 38l25.7 37.9 20.5 27.7c11.2 15.2 20.6 27.8 20.8 27.9 0.3 0.3-0.1 0.6-2.3 1.7-14.4 7.3-28.9 11.6-46.1 13.5-3.9 0.4-20.7 0.4-24.6 0-9.9-1.1-18.7-2.9-27-5.6-46.4-15-80.6-55.4-87.5-103.4-1.1-7.1-1.2-9.1-1.2-18.7 0-9.5 0.1-11.6 1.2-18.6 2.9-20.2 10.5-39.2 22.5-55.9 21.6-30.2 55.7-49.8 92-53.1 1.6-0.1 3.4-0.3 3.9-0.3 2.1-0.2 18.6 0 21 0.3zm26.2 76.6c-3.9 0-4.3 0-5.3 0.6-1.2 0.6-2.1 1.7-2.5 3.1-0.1 0.6-0.2 12.5-0.2 33.6v32.7l7.9 12.2 8 12.1v-45c0.1-31.3 0-45.2-0.2-45.9-0.3-1.2-1.3-2.3-2.5-2.9-0.8-0.5-1.5-0.5-5.2-0.5z"/>
	</g>
</svg>