<svg version="1.2" xmlns="http://www.w3.org/2000/svg" viewBox="0 0 725 150" width="725" height="150">
	<title>Webflow New-svg</title>
	<style>
		.s0 { fill: #ffffff } 
	</style>
	<path fill-rule="evenodd" class="s0" d="m196.8 15.3l-60.5 118.3h-56.8l25.3-49.1h-1.1c-20.9 27.2-52.1 45-96.5 49.1v-48.4c0 0 28.4-1.7 45.1-19.2h-45.1v-50.7h50.7v41.7h1.1l20.7-41.7h38.4v41.4h1.1l21.5-41.4z"/>
	<path class="s0" d="m526.8 120.5h16.3v-93.7h-16.3z"/>
	<path fill-rule="evenodd" class="s0" d="m427.5 113.3q-0.7-0.8-1.3-1.5v8.7h-16.2v-93.7h16.3v35.7q0.3-0.3 0.6-0.6 3.6-4.2 9-6.5 5.3-2.2 11.2-2.2 9.2-0.1 16.4 4.3 7.3 4.3 11.4 12.1 4 7.8 4 17.8 0 9.9-3.9 17.7-4 7.8-11.2 12.2-7.1 4.4-16.2 4.5-5.5 0-10.9-2.3-5.3-2.2-9.2-6.2zm32.2-15.8q2.2-4.5 2.2-10.2 0-5.7-2.2-10.2-2.2-4.5-6.2-6.8-4-2.5-9.2-2.4-5.1-0.1-9.4 2.4-4.2 2.5-6.7 7-2.5 4.4-2.4 10 0 5.6 2.4 10.1 2.6 4.4 6.8 7 4.2 2.5 9.3 2.5 5.2 0 9.2-2.5 4.1-2.5 6.2-6.9z"/>
	<path class="s0" d="m220.5 32.4h18.6l16.7 61 17.8-61h15.5l19.3 59.8 16-59.8h17.1l-25.2 88.1h-16.1l-19.6-58.4-18 58.4h-16.2z"/>
	<path fill-rule="evenodd" class="s0" d="m369.1 122.1q-9.8 0-17.6-4.4-7.8-4.4-12.3-12.2-4.4-7.9-4.4-17.9 0-9.7 4.6-17.6 4.5-7.9 12.3-12.4 7.8-4.4 17.3-4.4 10.8 0 18.9 4.8 8.1 4.8 12.1 13.6 4.1 8.7 2.9 20h-51.2q0.2 4.5 2.3 8.2 2.2 4.1 6.3 6.3 4.1 2.3 9.1 2.3 3.8-0.1 7.1-1.3 3.3-1.3 5.6-3.5 2.3-2.3 3.3-5.1h17.1q-1.6 6.9-6.3 12.3-4.6 5.3-11.7 8.3-7 3-15.4 3zm-15.1-46.9q-1.4 2.5-2 5.3h34q-0.4-3.6-2.3-6.6-2.1-3.5-5.8-5.4-3.7-2-8.4-2-5 0-9 2.3-4.1 2.2-6.5 6.4z"/>
	<path class="s0" d="m490.9 54.6q0-8 3.7-14.3 3.6-6.2 10.2-9.7 6.7-3.5 15.5-3.7v14.6q-4.1 0-7.1 1.7-2.8 1.6-4.4 4.7-1.4 2.9-1.5 6.7h12.6v13.8h-12.6v52.1h-16.4v-52.1h-10.5v-13.8c0 0 10.5 0 10.5 0z"/>
	<path fill-rule="evenodd" class="s0" d="m584.6 121.9q-10 0-17.9-4.3-7.8-4.5-12.3-12.2-4.4-7.9-4.4-17.8 0-10 4.4-17.8 4.5-7.9 12.3-12.3 7.9-4.3 17.9-4.3 10 0 17.9 4.3 8 4.4 12.4 12.2 4.4 7.9 4.5 17.9-0.1 9.9-4.5 17.8-4.4 7.7-12.3 12.2-8 4.3-18 4.3zm0-15q5.3 0 9.3-2.4 4.1-2.4 6.3-6.8 2.2-4.4 2.2-10.1 0-5.7-2.2-10.2-2.2-4.4-6.3-6.8-4-2.4-9.3-2.4-5.2 0-9.3 2.4-4 2.4-6.2 6.8-2.2 4.5-2.1 10.2 0 5.7 2.2 10.1 2.2 4.4 6.2 6.8 4 2.4 9.2 2.4z"/>
	<path class="s0" d="m637 54.6h-18.1l19.6 65.9h16l12.9-42.1 14 42.1h15.6l19.8-65.9h-16.5l-11.2 41-12.3-41h-16l-12.3 41.9z"/>
</svg>